# xmcd
#
# Track frame offsets:
#	182
#	21022
#	38195
#	59017
#
# Disc length: 1057 seconds
#
# Revision: 1
# Processed by: cddbd v1.5.1PL2 Copyright (c) Steve Scherf et al.
# Submitted via: EasyCDDAExtractor 6.2.0.3
#
DISCID=2f041f04
DTITLE=D'Angelo - Left and Right [CD-SINGLE)
DYEAR=2002
DGENRE=R&B
TTITLE0=Left and Right (Radio Edit)
TTITLE1=Left and Right (W/O Rap Version)
TTITLE2=Left and Right (Explicit Version)
TTITLE3=Devil's Pie
EXTD=YEAR: 2002\n
EXTT0=
EXTT1=
EXTT2=
EXTT3=
PLAYORDER=
